<?xml version="1.0" encoding="UTF-8" standalone="no"?>
<svg
   width="317.58258pt"
   height="182.57721pt"
   viewBox="0 0 317.58258 182.57721"
   version="1.1"
   id="svg109"
   sodipodi:docname="smlserver_logo2.svg"
   inkscape:version="1.1.1 (c3084ef, 2021-09-22)"
   xmlns:inkscape="http://www.inkscape.org/namespaces/inkscape"
   xmlns:sodipodi="http://sodipodi.sourceforge.net/DTD/sodipodi-0.dtd"
   xmlns="http://www.w3.org/2000/svg"
   xmlns:svg="http://www.w3.org/2000/svg">
  <defs
     id="defs113">
    <linearGradient
       id="linearGradient40783"
       inkscape:swatch="solid">
      <stop
         style="stop-color:#ffffff;stop-opacity:1;"
         offset="0"
         id="stop40781" />
    </linearGradient>
  </defs>
  <sodipodi:namedview
     id="namedview111"
     pagecolor="#ffffff"
     bordercolor="#666666"
     borderopacity="1.0"
     inkscape:pageshadow="2"
     inkscape:pageopacity="0.0"
     inkscape:pagecheckerboard="true"
     inkscape:document-units="pt"
     showgrid="false"
     inkscape:zoom="1.2646927"
     inkscape:cx="225.35119"
     inkscape:cy="135.60607"
     inkscape:window-width="1835"
     inkscape:window-height="983"
     inkscape:window-x="0"
     inkscape:window-y="25"
     inkscape:window-maximized="0"
     inkscape:current-layer="layer1"
     width="297pt"
     inkscape:snap-text-baseline="false"
     inkscape:snap-grids="false"
     inkscape:snap-to-guides="false"
     inkscape:snap-nodes="true"
     fit-margin-top="-25"
     fit-margin-left="0"
     fit-margin-right="0"
     fit-margin-bottom="0">
    <inkscape:grid
       type="xygrid"
       id="grid292"
       originx="-13.708719"
       originy="-54.249998" />
  </sodipodi:namedview>
  <path
     style="fill:none;fill-rule:evenodd;stroke:#000000;stroke-width:0.75px;stroke-linecap:butt;stroke-linejoin:miter;stroke-opacity:1"
     d="m 31.291285,-24.625 v 0"
     id="path497"
     inkscape:connector-type="polyline"
     inkscape:connector-curvature="0" />
  <text
     xml:space="preserve"
     style="font-size:33.6744px;line-height:1.25;font-family:Galvji;-inkscape-font-specification:'Galvji, Normal';font-variant-ligatures:none;stroke-width:1.4031"
     x="9.6360798"
     y="-17.261156"
     id="text3451"
     transform="scale(1.385664,0.72167567)"><tspan
       sodipodi:role="line"
       id="tspan3449"
       style="stroke-width:1.4031"
       x="9.6360798"
       y="-17.261156" /></text>
  <g
     inkscape:groupmode="layer"
     id="layer1"
     inkscape:label="Layer 1"
     style="display:inline"
     transform="translate(-13.708715,-39.625)">
    <path
       style="fill:#19667d;fill-opacity:1;stroke-width:0.542359"
       d="M 15,64.188101 V 42.698273 H 172.19344 329.38688 V 64.188101 85.677928 H 172.19344 15 Z"
       id="path35158" />
    <path
       style="fill:none;stroke:#19667d;stroke-width:2.55675;stroke-linecap:butt;stroke-linejoin:miter;stroke-miterlimit:4;stroke-dasharray:none;stroke-opacity:1"
       d="M 14.98709,43.579169 V 203.47382 H 330.01291 V 43.579169 Z"
       id="path36944"
       sodipodi:nodetypes="ccccc" />
    <text
       xml:space="preserve"
       style="font-size:47.3027px;line-height:1.25;font-family:Galvji;-inkscape-font-specification:'Galvji, Normal';font-variant-ligatures:none;opacity:1;fill:#ffffff;fill-opacity:1;stroke-width:1.97094"
       x="19.740593"
       y="82.965096"
       id="text14285"
       transform="scale(1.1056674,0.90443112)"><tspan
         sodipodi:role="line"
         id="tspan14283"
         style="fill:#ffffff;fill-opacity:1;stroke-width:1.97094"
         x="19.740593"
         y="82.965096" /></text>
    <text
       xml:space="preserve"
       style="font-weight:normal;font-size:44.6269px;line-height:1.25;font-family:Sans;-inkscape-font-specification:'Sans, Normal';font-variant-ligatures:none;stroke-width:0.707574;font-style:normal;font-stretch:normal;font-variant:normal;font-variant-caps:normal;font-variant-numeric:normal;font-variant-east-asian:normal"
       x="18.221235"
       y="86.628296"
       id="text57120"
       transform="scale(1.1553059,0.86557165)"><tspan
         sodipodi:role="line"
         id="tspan72542" /></text>
    <text
       xml:space="preserve"
       style="font-weight:300;font-size:39.8853px;line-height:1.25;font-family:'Apple SD Gothic Neo';-inkscape-font-specification:'Apple SD Gothic Neo, Light';font-variant-ligatures:none;letter-spacing:7.25329px;fill:#ffffff;stroke-width:0.691166"
       x="20.258423"
       y="87.234207"
       id="text1851"
       transform="scale(1.1375316,0.87909648)"><tspan
         sodipodi:role="line"
         id="tspan1849"
         style="font-style:normal;font-variant:normal;font-weight:normal;font-stretch:normal;font-family:'Apple SD Gothic Neo';-inkscape-font-specification:'Apple SD Gothic Neo';fill:#ffffff;stroke-width:0.691166"
         x="20.258423"
         y="87.234207">powered by</tspan></text>
  </g>
  <g
     inkscape:groupmode="layer"
     id="layer2"
     inkscape:label="Layer 2"
     style="display:inline"
     transform="translate(-13.708715,-39.625)">
    <g
       id="surface1"
       transform="translate(25.59375,86.94531)">
      <path
         style="fill:none;stroke:#19667d;stroke-width:30;stroke-linecap:butt;stroke-linejoin:miter;stroke-miterlimit:4;stroke-opacity:1"
         d="m 2738.0078,780.39062 v 398.74998 h -212.5 V 746.99219 l -68.5937,432.14841 h -218.75 l -44.0235,-143.4765 c -10.7812,-35.1954 -19.375,-66.9141 -25.8203,-95.11723 -6.4844,-28.20312 -11.3281,-54.80468 -14.5312,-79.80468 h -3.6328 c -4.0625,39.76562 -14.961,90.42968 -32.6954,151.95311 -2.6953,9.1406 -4.7265,15.9766 -6.0546,20.5469 l -41.9922,145.8984 h -219.1797 l -53.0078,-310.0781 c -5.1172,10.27344 -11.2891,20 -18.75,29.0625 -23.4375,28.28125 -55.4688,46.99219 -96.1328,56.17187 -5.0782,1.05469 -12.3438,2.69532 -21.7188,4.84375 -58.8672,12.69532 -88.2812,27.38282 -88.2812,44.14058 0,8.9063 4.0234,15.8594 12.0703,20.8594 8.0859,5 19.5312,7.5 34.2968,7.5 19.4141,0 39.375,-3.9843 59.9219,-11.9531 20.586,-7.9688 41.0938,-19.5313 61.5625,-34.64844 l 64.6485,154.37504 c -33.3594,17.9297 -66.4454,31.3281 -99.2579,40.1953 -32.8125,8.8281 -66.1718,13.2812 -100.039,13.2812 -73.711,0 -133.3203,-19.9218 -178.7891,-59.7656 -45.4687,-39.8437 -68.164,-91.5234 -68.164,-155.03906 0,-40.89844 11.6796,-75.07813 35.0781,-102.53907 23.3984,-27.46093 57.1094,-46.5625 101.2109,-57.34375 7.5,-1.60156 17.9688,-3.90625 31.4063,-6.875 41.5234,-8.63281 62.3047,-21.21093 62.3047,-37.65625 0,-9.45312 -4.1797,-16.95312 -12.5,-22.5 -8.3204,-5.54687 -19.7266,-8.28125 -34.2188,-8.28125 -20.6641,0 -42.8906,4.92188 -66.6406,14.76563 -23.7891,9.84375 -50.8203,25.46875 -81.1719,46.79687 l -67.9687,-165.50781 c 38.7109,-22.03125 77.4609,-38.51562 116.2109,-49.53125 38.75,-11.01562 77.5,-16.52344 116.25,-16.52344 75.5859,0 136.9922,20.70313 184.2187,62.1875 6.1719,5.46875 11.9532,11.13282 17.3438,16.99219 l -10.7813,-62.92969 h 208.2813 l 25.8203,233.75 c 1.6016,17.96875 3.1641,35.85938 4.6484,53.59375 1.4844,17.73438 2.8907,35.70313 4.2579,53.98438 2.4218,-16.91406 5.7812,-34.84375 10.0781,-53.78906 4.2969,-18.94532 9.8047,-39.17969 16.5625,-60.66407 l 67.8125,-226.875 h 126.3281 l 67.8125,226.875 c 6.4453,21.48438 11.875,41.71875 16.3281,60.66407 4.4532,18.94531 7.8907,36.875 10.3125,53.78906 1.0547,-18.00781 2.4219,-35.9375 4.0235,-53.78906 1.6015,-17.89063 3.2422,-35.82032 4.8437,-53.78907 l 25.8594,-233.75 h 601.9922 v 191.25 z m 0,0"
         transform="matrix(0.1,0,0,-0.1,0,136)"
         id="path86" />
      <path
         style="fill:#19667d;fill-opacity:1;fill-rule:nonzero;stroke:none"
         d="m 151.94922,99.722656 c 0,1.738284 -0.72656,3.164064 -2.17969,4.265624 -1.45703,1.10547 -3.44531,1.66016 -5.96094,1.66016 -1.42968,0 -2.73828,-0.16797 -3.92578,-0.49219 -1.1914,-0.32812 -2.1914,-0.69531 -2.99609,-1.10156 v -3.59375 h 0.17187 c 1.01953,0.76172 2.15235,1.37109 3.39844,1.82031 1.24609,0.45313 2.44141,0.67969 3.58594,0.67969 1.42187,0 2.53125,-0.23047 3.33203,-0.6836 0.80078,-0.45703 1.19922,-1.17187 1.19922,-2.14062 0,-0.757814 -0.21875,-1.332032 -0.65235,-1.710939 -0.4375,-0.390625 -1.27343,-0.71875 -2.51171,-0.984375 -0.45704,-0.101562 -1.0586,-0.222656 -1.79688,-0.363281 -0.73828,-0.136719 -1.41406,-0.289063 -2.01953,-0.449219 -1.6875,-0.4375 -2.87891,-1.085937 -3.58594,-1.945312 -0.70312,-0.855469 -1.05859,-1.910156 -1.05859,-3.167969 0,-0.785156 0.16406,-1.519531 0.49219,-2.210937 0.32812,-0.691407 0.82812,-1.308594 1.49609,-1.847657 0.64844,-0.542969 1.46875,-0.96875 2.46484,-1.28125 0.9961,-0.308593 2.11328,-0.464843 3.34766,-0.464843 1.15234,0 2.32031,0.136718 3.50391,0.417968 1.17968,0.277344 2.16015,0.617188 2.94531,1.023438 v 3.433594 h -0.17188 c -0.82422,-0.613282 -1.82812,-1.128907 -3.01172,-1.554688 -1.17968,-0.421875 -2.33984,-0.632812 -3.47656,-0.632812 -1.17969,0 -2.17969,0.226562 -2.99219,0.679687 -0.8164,0.453125 -1.22265,1.128906 -1.22265,2.023437 0,0.785157 0.24609,1.371094 0.73828,1.761719 0.48437,0.40625 1.26172,0.730469 2.33984,0.984375 0.59766,0.125 1.26563,0.257813 2.00391,0.398438 0.73828,0.140625 1.35547,0.265625 1.85156,0.378906 1.5,0.34375 2.65625,0.933594 3.47266,1.765625 0.8125,0.835937 1.21875,1.949219 1.21875,3.332031"
         id="path88" />
      <path
         style="fill:#19667d;fill-opacity:1;fill-rule:nonzero;stroke:none"
         d="m 181.53125,96.085938 h -14.125 c 0,1.148437 0.17578,2.15625 0.53125,3.015624 0.35547,0.863282 0.83984,1.570318 1.46094,2.124998 0.59375,0.53907 1.30078,0.9375 2.12109,1.20703 0.81641,0.26954 1.71484,0.40235 2.70313,0.40235 1.30078,0 2.61718,-0.25 3.9375,-0.75391 1.32031,-0.5 2.26562,-1 2.82421,-1.49609 h 0.17188 v 3.48047 c -1.09375,0.45703 -2.21094,0.83593 -3.34766,1.13672 -1.14062,0.29296 -2.33593,0.44531 -3.58984,0.44531 -3.20313,0 -5.69922,-0.85156 -7.49609,-2.55078 -1.79297,-1.69922 -2.69141,-4.117191 -2.69141,-7.25391 0,-3.101562 0.85937,-5.566406 2.57812,-7.390625 1.72266,-1.828125 3.98438,-2.742187 6.79297,-2.742187 2.60157,0 4.60547,0.75 6.01563,2.246093 1.40625,1.496094 2.11328,3.625 2.11328,6.386719 z m -3.1875,-2.4375 c -0.0117,-1.707032 -0.4375,-3.035157 -1.27344,-3.972657 -0.83984,-0.933593 -2.10937,-1.402343 -3.82031,-1.402343 -1.71875,0 -3.08984,0.515624 -4.10938,1.546874 -1.01953,1.027344 -1.59765,2.308594 -1.73437,3.828126 h 10.9375"
         id="path90" />
      <path
         style="fill:#19667d;fill-opacity:1;fill-rule:nonzero;stroke:none"
         d="m 207.24609,89.710938 h -0.17187 c -0.47656,-0.109376 -0.94531,-0.1875 -1.39844,-0.238282 -0.45312,-0.05078 -0.98828,-0.07422 -1.60937,-0.07422 -0.9961,0 -1.96094,0.21875 -2.88672,0.652343 -0.92578,0.4375 -1.82422,1 -2.6836,1.6875 v 13.472661 h -3.25 V 86.210938 h 3.25 v 2.796874 c 1.28516,-1.015624 2.41797,-1.730468 3.39844,-2.160156 0.97656,-0.425781 1.97656,-0.636718 3,-0.636718 0.55859,0 0.96484,0.01172 1.21875,0.04297 0.25,0.02734 0.62891,0.07813 1.13281,0.148438 v 3.308594"
         id="path92" />
      <path
         style="fill:#19667d;fill-opacity:1;fill-rule:nonzero;stroke:none"
         d="m 235.75391,86.210938 -7.77344,19.000002 h -3.25 l -7.72656,-19.000002 h 3.50781 l 5.95312,15.132812 5.91407,-15.132812 h 3.375"
         id="path94" />
      <path
         style="fill:#19667d;fill-opacity:1;fill-rule:nonzero;stroke:none"
         d="m 264.64844,96.085938 h -14.125 c 0,1.148437 0.17578,2.15625 0.53515,3.015624 0.35157,0.863282 0.83594,1.570318 1.45703,2.124998 0.59375,0.53907 1.30079,0.9375 2.1211,1.20703 0.8164,0.26954 1.71875,0.40235 2.70312,0.40235 1.30469,0 2.61328,-0.25 3.9375,-0.75391 1.32422,-0.5 2.26172,-1 2.82422,-1.49609 h 0.17188 v 3.48047 c -1.09375,0.45703 -2.21094,0.83593 -3.34766,1.13672 -1.14062,0.29296 -2.33594,0.44531 -3.58984,0.44531 -3.19922,0 -5.69922,-0.85156 -7.49219,-2.55078 -1.79688,-1.69922 -2.69531,-4.117191 -2.69531,-7.25391 0,-3.101562 0.85937,-5.566406 2.58203,-7.390625 1.71875,-1.828125 3.98437,-2.742187 6.78906,-2.742187 2.59766,0 4.60547,0.75 6.01563,2.246093 1.40625,1.496094 2.11328,3.625 2.11328,6.386719 z m -3.1875,-2.4375 c -0.0117,-1.707032 -0.4375,-3.035157 -1.27344,-3.972657 -0.83594,-0.933593 -2.10938,-1.402343 -3.82031,-1.402343 -1.71875,0 -3.08985,0.515624 -4.10938,1.546874 -1.01953,1.027344 -1.59765,2.308594 -1.73437,3.828126 h 10.9375"
         id="path96" />
      <path
         style="fill:#19667d;fill-opacity:1;fill-rule:nonzero;stroke:none"
         d="m 290.36328,89.710938 h -0.17187 c -0.47657,-0.109376 -0.94532,-0.1875 -1.39844,-0.238282 -0.45313,-0.05078 -0.98828,-0.07422 -1.60547,-0.07422 -1,0 -1.96094,0.21875 -2.89063,0.652343 -0.92968,0.4375 -1.82031,1 -2.67968,1.6875 v 13.472661 h -3.25 V 86.210938 h 3.25 v 2.796874 c 1.28125,-1.015624 2.41406,-1.730468 3.39453,-2.160156 0.97656,-0.425781 1.97656,-0.636718 3,-0.636718 0.55859,0 0.96875,0.01172 1.21875,0.04297 0.25,0.02734 0.6289,0.07813 1.13281,0.148438 v 3.308594"
         id="path98" />
      <path
         style="fill:#23a3d7;fill-opacity:1;fill-rule:nonzero;stroke:none"
         d="m 101.61719,33.355469 c -1.726565,0 -3.277346,0.742187 -4.351565,1.925781 -0.503906,0.394531 -1.136719,0.632812 -1.824219,0.632812 -1.609375,0 -2.914062,-1.292968 -2.9375,-2.894531 v -16.78125 h -17.1875 c -1.285156,-0.316406 -2.234375,-1.472656 -2.234375,-2.855469 0,-0.773437 0.300781,-1.480468 0.789063,-2.003906 h -0.0078 c 1.0703,-1.066406 1.730456,-2.542968 1.730456,-4.171875 0,-3.246093 -2.632812,-5.882812 -5.878906,-5.882812 -3.25,0 -5.882813,2.636719 -5.882813,5.882812 0,1.726563 0.742188,3.277344 1.925781,4.355469 0.398438,0.5 0.636719,1.132812 0.636719,1.820312 0,1.386719 -0.957031,2.542969 -2.246093,2.855469 H 46.71875 v 0.0625 H 29.921875 C 28.636719,15.984375 27.6875,14.828125 27.6875,13.445312 c 0,-0.773437 0.300781,-1.476562 0.789062,-2.003906 h -0.0078 c 1.070312,-1.066406 1.730469,-2.542968 1.730469,-4.171875 0,-3.246093 -2.632813,-5.878906 -5.878907,-5.878906 -3.25,0 -5.882812,2.632813 -5.882812,5.878906 0,1.726563 0.742188,3.28125 1.925781,4.355469 C 20.761719,12.125 21,12.757812 21,13.445312 c 0,1.386719 -0.957031,2.542969 -2.246094,2.855469 H 1.324219 v 16.785157 c 0.023437,1.601562 1.328125,2.894531 2.9375,2.894531 0.6875,0 1.320312,-0.242188 1.824219,-0.636719 1.074218,-1.183594 2.625,-1.925781 4.351562,-1.925781 3.25,0 5.882812,2.632812 5.882812,5.878906 0,3.25 -2.632812,5.882813 -5.882812,5.882813 -1.628906,0 -3.105469,-0.660157 -4.167969,-1.730469 v 0.0078 C 5.742188,42.964844 5.039062,42.664062 4.261719,42.664062 c -1.570313,0 -2.851563,1.230469 -2.9375,2.777344 v 31.578125 c 0.023437,1.601563 1.328125,2.894531 2.9375,2.894531 0.6875,0 1.320312,-0.238281 1.824219,-0.632812 1.074218,-1.183594 2.625,-1.929688 4.351562,-1.929688 3.25,0 5.882812,2.636719 5.882812,5.882813 0,3.25 -2.632812,5.882813 -5.882812,5.882813 -1.628906,0 -3.105469,-0.664063 -4.167969,-1.734376 v 0.01172 c -0.527343,-0.492188 -1.230469,-0.79297 -2.007812,-0.79297 -1.570313,0 -2.851563,1.230469 -2.9375,2.777344 V 106.02344 H 17.96875 c 0.02734,0 0.05859,0 0.08984,0 1.625,0 2.941406,-1.31641 2.941406,-2.94141 0,-0.6875 -0.238281,-1.32031 -0.636719,-1.82422 -1.183593,-1.07422 -1.925781,-2.624998 -1.925781,-4.35156 0,-3.25 2.632812,-5.882812 5.882812,-5.882812 3.246094,0 5.878907,2.632812 5.878907,5.882812 0,1.628906 -0.660157,3.10547 -1.730469,4.16797 h 0.0078 c -0.488281,0.52734 -0.789062,1.23047 -0.789062,2.00781 0,1.57031 1.226562,2.85156 2.777344,2.9375 v 0.004 H 47.109375 V 89.378906 c 0.08594,-1.546875 1.367187,-2.777344 2.9375,-2.777344 0.773437,0 1.480469,0.300782 2.007813,0.792969 v -0.01172 c 1.0625,1.070313 2.539062,1.734376 4.167968,1.734376 3.25,0 5.882813,-2.632813 5.882813,-5.882813 0,-3.246094 -2.632813,-5.882813 -5.882813,-5.882813 -1.726562,0 -3.277344,0.746094 -4.351562,1.929688 -0.503906,0.394531 -1.136719,0.632812 -1.824219,0.632812 -1.609375,0 -2.914063,-1.292968 -2.9375,-2.894531 V 62.023438 h 16.253906 c 0.02734,0 0.05859,0 0.08984,0 1.625,0 2.941406,-1.316407 2.941406,-2.941407 0,-0.6875 -0.238281,-1.320312 -0.636719,-1.824219 -1.183593,-1.074218 -1.925781,-2.625 -1.925781,-4.351562 0,-3.25 2.632813,-5.882812 5.882813,-5.882812 3.246094,0 5.878906,2.632812 5.878906,5.882812 0,1.628906 -0.660156,3.105469 -1.730469,4.167969 h 0.0078 c -0.488282,0.527343 -0.789063,1.230469 -0.789063,2.007812 0,1.570313 1.226563,2.851563 2.777344,2.9375 v 0.0039 H 92.503906 V 45.378906 c 0.08594,-1.546875 1.367188,-2.777344 2.9375,-2.777344 0.773438,0 1.480469,0.300782 2.007813,0.792969 v -0.01172 c 1.0625,1.070313 2.539062,1.734376 4.167971,1.734376 3.25,0 5.8789,-2.632813 5.8789,-5.882813 0,-3.246094 -2.6289,-5.878906 -5.8789,-5.878906"
         id="path100" />
      <path
         style="fill:none;stroke:#19667d;stroke-width:10;stroke-linecap:butt;stroke-linejoin:miter;stroke-miterlimit:4;stroke-opacity:1"
         d="m 1016.1719,1026.4453 c -17.26565,0 -32.77346,-7.4219 -43.51565,-19.2578 -5.03906,-3.9453 -11.36719,-6.3281 -18.24219,-6.3281 -16.09375,0 -29.14062,12.9297 -29.375,28.9453 v 167.8125 h -171.875 c -12.85156,3.1641 -22.34375,14.7266 -22.34375,28.5547 0,7.7344 3.00781,14.8047 7.89063,20.039 h -0.0781 c 10.70313,10.6641 17.30469,25.4297 17.30469,41.7188 0,32.4609 -26.32813,58.8281 -58.78906,58.8281 -32.5,0 -58.82813,-26.3672 -58.82813,-58.8281 0,-17.2656 7.42188,-32.7734 19.25781,-43.5547 3.98438,-5 6.36719,-11.3281 6.36719,-18.2031 0,-13.8672 -9.57031,-25.4297 -22.46094,-28.5547 H 467.1875 v -0.625 H 299.21875 c -12.85156,3.1641 -22.34375,14.7266 -22.34375,28.5547 0,7.7344 3.00781,14.7656 7.89062,20.039 h -0.0781 c 10.70312,10.6641 17.30469,25.4297 17.30469,41.7188 0,32.4609 -26.32813,58.7891 -58.78907,58.7891 -32.5,0 -58.82812,-26.3282 -58.82812,-58.7891 0,-17.2656 7.42187,-32.8125 19.25781,-43.5547 3.98438,-5 6.36719,-11.3281 6.36719,-18.2031 0,-13.8672 -9.57031,-25.4297 -22.46094,-28.5547 H 13.242188 v -167.8516 c 0.234374,-16.0156 13.28125,-28.9453 29.375,-28.9453 6.875,0 13.203124,2.4219 18.242187,6.3672 10.742187,11.8359 26.25,19.2578 43.515625,19.2578 32.5,0 58.82812,-26.32811 58.82812,-58.78905 0,-32.5 -26.32812,-58.82813 -58.82812,-58.82813 -16.289062,0 -31.054688,6.60157 -41.679688,17.30469 v -0.0781 c -5.273437,4.92187 -12.304687,7.92968 -20.078124,7.92968 -15.703126,0 -28.515626,-12.30468 -29.375,-27.77343 V 589.80469 c 0.234374,-16.01563 13.28125,-28.94532 29.375,-28.94532 6.875,0 13.203124,2.38282 18.242187,6.32813 10.742187,11.83594 26.25,19.29687 43.515625,19.29687 32.5,0 58.82812,-26.36718 58.82812,-58.82812 0,-32.5 -26.32812,-58.82813 -58.82812,-58.82813 -16.289062,0 -31.054688,6.64063 -41.679688,17.34375 v -0.11718 c -5.273437,4.92187 -12.304687,7.92968 -20.078124,7.92968 -15.703126,0 -28.515626,-12.30468 -29.375,-27.77343 V 299.76562 H 179.6875 c 0.27344,0 0.58594,0 0.89844,0 16.25,0 29.41406,13.16407 29.41406,29.41407 0,6.875 -2.38281,13.20312 -6.36719,18.24218 -11.83594,10.74219 -19.25781,26.25 -19.25781,43.51563 0,32.5 26.32812,58.82812 58.82812,58.82812 32.46094,0 58.78907,-26.32812 58.78907,-58.82812 0,-16.28906 -6.60157,-31.05469 -17.30469,-41.67969 h 0.0781 c -4.88281,-5.27344 -7.89062,-12.30469 -7.89062,-20.07812 0,-15.70313 12.26562,-28.51563 27.77344,-29.375 v -0.0391 h 166.44531 v 166.44532 c 0.85937,15.46875 13.67187,27.77343 29.375,27.77343 7.73437,0 14.80469,-3.00781 20.07812,-7.92968 v 0.11718 c 10.625,-10.70312 25.39063,-17.34375 41.67969,-17.34375 32.5,0 58.82813,26.32813 58.82813,58.82813 0,32.46094 -26.32813,58.82812 -58.82813,58.82812 -17.26562,0 -32.77344,-7.46093 -43.51562,-19.29687 -5.03907,-3.94531 -11.36719,-6.32813 -18.24219,-6.32813 -16.09375,0 -29.14063,12.92969 -29.375,28.94532 v 149.96093 h 162.53906 c 0.27344,0 0.58594,0 0.89844,0 16.25,0 29.41406,13.16407 29.41406,29.41407 0,6.875 -2.38281,13.20312 -6.36719,18.24218 -11.83593,10.74219 -19.25781,26.25 -19.25781,43.51563 0,32.5 26.32813,58.82812 58.82813,58.82812 32.46093,0 58.78906,-26.32812 58.78906,-58.82812 0,-16.28906 -6.60156,-31.05469 -17.30469,-41.67969 h 0.0781 c -4.88282,-5.27344 -7.89063,-12.30469 -7.89063,-20.07812 0,-15.70313 12.26563,-28.51563 27.77344,-29.375 v -0.0391 h 166.44531 v 166.44532 c 0.85938,15.46875 13.67188,27.77343 29.375,27.77343 7.73438,0 14.80469,-3.00781 20.07813,-7.92968 v 0.11718 c 10.625,-10.70312 25.39062,-17.34375 41.67966,-17.34375 32.5001,0 58.7891,26.32813 58.7891,58.82813 0,32.46091 -26.289,58.78901 -58.7891,58.78901 z m 0,0"
         transform="matrix(0.1,0,0,-0.1,0,136)"
         id="path102" />
      <path
         style="fill:#23a3d7;fill-opacity:1;fill-rule:nonzero;stroke:none"
         d="m 122.23828,119.28516 c -1.28515,-1.15235 -2.9375,-1.63282 -4.52734,-1.47266 -0.64063,-0.0391 -1.26953,-0.28125 -1.78125,-0.74219 -1.19922,-1.07422 -1.3086,-2.91015 -0.25781,-4.11718 L 126.875,100.45703 114.07813,88.984375 c -0.7461,-1.089844 -0.67969,-2.589844 0.23828,-3.617187 0.51953,-0.578126 1.21484,-0.902344 1.92968,-0.964844 l -0.008,-0.0078 c 1.50781,-0.07813 2.98828,-0.734375 4.07422,-1.949219 2.16797,-2.417968 1.96484,-6.136718 -0.45312,-8.304687 -2.41797,-2.167969 -6.13672,-1.964844 -8.30469,0.453125 -1.15235,1.285156 -1.63281,2.9375 -1.46875,4.527344 -0.043,0.640625 -0.28906,1.269531 -0.7461,1.78125 -0.92578,1.03125 -2.41015,1.253906 -3.57812,0.628906 L 92.78125,69.894531 81.671875,82.289062 l -0.08984,0.101563 c -1.050781,1.210937 -0.941406,3.042969 0.253907,4.117187 0.515624,0.460938 1.144531,0.707032 1.78125,0.746094 1.589843,-0.164062 3.242187,0.316406 4.527343,1.46875 2.417969,2.167969 2.621094,5.886719 0.453125,8.304688 -2.167968,2.421875 -5.886718,2.625 -8.304687,0.453125 -1.210938,-1.085938 -1.867188,-2.5625 -1.949219,-4.070313 l -0.0039,0.0039 C 78.277344,92.699219 77.953125,92.003906 77.375,91.488281 76.203125,90.441406 74.429688,90.5 73.332031,91.59375 l -11.109375,12.39453 12.390625,11.10938 0.0039,-0.004 c 0.01953,0.0234 0.04297,0.043 0.06641,0.0625 1.207031,1.08594 3.066406,0.98438 4.152344,-0.22656 0.457031,-0.51172 0.703124,-1.14063 0.746093,-1.78125 -0.164062,-1.58985 0.316407,-3.24219 1.46875,-4.52735 2.167969,-2.41796 5.886719,-2.62109 8.304688,-0.45312 2.417969,2.16797 2.621093,5.88672 0.453125,8.30469 -1.085938,1.21484 -2.5625,1.87109 -4.074219,1.94922 l 0.01172,0.008 c -0.71875,0.0625 -1.414063,0.38672 -1.933594,0.96484 -1.046875,1.16797 -0.984375,2.94531 0.109375,4.03906 l -0.0039,0.004 12.394531,11.11328 11.109376,-12.39453 h 0.004 c 1.09766,-1.09375 2.8711,-1.15625 4.03906,-0.10937 0.57813,0.51953 0.90235,1.21484 0.96485,1.92968 l 0.008,-0.008 c 0.0781,1.50781 0.73438,2.98828 1.94922,4.07422 2.41797,2.16797 6.13672,1.96484 8.30469,-0.45313 2.16797,-2.41796 1.96484,-6.13671 -0.45313,-8.30468"
         id="path104" />
      <path
         style="fill:none;stroke:#19667d;stroke-width:10;stroke-linecap:butt;stroke-linejoin:miter;stroke-miterlimit:4;stroke-opacity:1"
         d="m 1222.3828,167.14844 c -12.8515,11.52343 -29.375,16.32812 -45.2734,14.72656 -6.4063,0.39062 -12.6953,2.8125 -17.8125,7.42187 -11.9922,10.74219 -13.086,29.10157 -2.5781,41.17188 L 1268.75,355.42969 1140.7813,470.15625 c -7.461,10.89844 -6.7969,25.89844 2.3828,36.17187 5.1953,5.78125 12.1484,9.02344 19.2968,9.64844 l -0.078,0.0781 c 15.0781,0.78125 29.8828,7.34375 40.7422,19.49218 21.6797,24.17969 19.6484,61.36719 -4.5312,83.04688 -24.1797,21.67969 -61.3672,19.64844 -83.0469,-4.53125 -11.5235,-12.85156 -16.3281,-29.375 -14.6875,-45.27344 -0.4297,-6.40625 -2.8906,-12.69531 -7.461,-17.8125 -9.2578,-10.3125 -24.1015,-12.53906 -35.7812,-6.28906 L 927.8125,661.05469 816.71875,537.10937 l -0.89844,-1.01562 c -10.50781,-12.10938 -9.41406,-30.42969 2.53906,-41.17188 5.15625,-4.60937 11.44532,-7.07031 17.8125,-7.46093 15.89844,1.64062 32.42188,-3.16407 45.27344,-14.6875 24.17969,-21.67969 26.21094,-58.86719 4.53125,-83.04688 -21.67969,-24.21875 -58.86719,-26.25 -83.04687,-4.53125 -12.10938,10.85938 -18.67188,25.625 -19.49219,40.70313 l -0.0391,-0.0391 c -0.625,7.14844 -3.86719,14.10157 -9.64844,19.25782 C 762.03125,455.58594 744.29687,455 733.32031,444.0625 L 622.22656,320.11719 746.13281,209.02344 l 0.0391,0.0391 c 0.19532,-0.23438 0.42969,-0.42969 0.66407,-0.625 12.07031,-10.85938 30.66406,-9.84375 41.52343,2.26562 4.57032,5.11719 7.03125,11.40625 7.46094,17.8125 -1.64062,15.89844 3.16406,32.42188 14.6875,45.27344 21.67969,24.17969 58.86719,26.21094 83.04688,4.53125 24.17968,-21.67969 26.21093,-58.86719 4.53125,-83.04687 -10.85938,-12.14844 -25.625,-18.71094 -40.74219,-19.49219 l 0.11719,-0.0781 c -7.1875,-0.625 -14.14063,-3.86718 -19.33594,-9.64843 -10.46875,-11.67969 -9.84375,-29.45313 1.09375,-40.39063 L 839.17969,125.625 963.125,14.492188 1074.2188,138.4375 h 0.039 c 10.9766,10.9375 28.711,11.5625 40.3906,1.09375 5.7813,-5.19531 9.0235,-12.14844 9.6485,-19.29687 l 0.078,0.0781 c 0.7813,-15.07812 7.3438,-29.882812 19.4922,-40.742188 24.1797,-21.679687 61.3672,-19.648437 83.0469,4.53125 21.6797,24.179688 19.6484,61.367188 -4.5313,83.046878 z m 0,0"
         transform="matrix(0.1,0,0,-0.1,0,136)"
         id="path106" />
    </g>
  </g>
</svg>
